<?xml version="1.0" encoding="UTF-8"?>
<svg xmlns="http://www.w3.org/2000/svg" xmlns:xlink="http://www.w3.org/1999/xlink" width="16px" height="16px" viewBox="0 0 16 16" version="1.1">
<defs>
<filter id="alpha" filterUnits="objectBoundingBox" x="0%" y="0%" width="100%" height="100%">
  <feColorMatrix type="matrix" in="SourceGraphic" values="0 0 0 0 1 0 0 0 0 1 0 0 0 0 1 0 0 0 1 0"/>
</filter>
<mask id="mask0">
  <g filter="url(#alpha)">
<rect x="0" y="0" width="16" height="16" style="fill:rgb(0%,0%,0%);fill-opacity:0.180392;stroke:none;"/>
  </g>
</mask>
<clipPath id="clip1">
  <rect x="0" y="0" width="16" height="16"/>
</clipPath>
<g id="surface5" clip-path="url(#clip1)">
<path style=" stroke:none;fill-rule:nonzero;fill:rgb(100%,100%,100%);fill-opacity:1;" d="M 8.992188 9.089844 C 8.6875 8.980469 8.386719 8.824219 8.0625 8.824219 C 7.925781 8.824219 7.78125 8.851562 7.648438 8.816406 C 7.371094 8.742188 7.238281 8.441406 7.074219 8.207031 C 6.820312 7.839844 6.425781 7.597656 6.03125 7.382812 C 5.75 7.230469 5.460938 7.089844 5.171875 6.957031 C 4.910156 6.839844 4.601562 6.703125 4.304688 6.683594 C 4.734375 6.339844 5.226562 6.527344 5.730469 6.757812 C 6.433594 7.074219 7.210938 7.460938 7.5625 7.960938 C 7.71875 8.1875 7.847656 8.476562 8.113281 8.546875 C 8.238281 8.582031 8.378906 8.554688 8.511719 8.554688 C 9.230469 8.554688 10.167969 9.660156 12.96875 8.414062 C 13.59375 8.132812 14.203125 7.789062 14.683594 7.304688 C 13.714844 8.460938 10.910156 9.78125 8.992188 9.089844 Z M 8.992188 9.089844 "/>
</g>
<mask id="mask1">
  <g filter="url(#alpha)">
<rect x="0" y="0" width="16" height="16" style="fill:rgb(0%,0%,0%);fill-opacity:0.321569;stroke:none;"/>
  </g>
</mask>
<clipPath id="clip2">
  <rect x="0" y="0" width="16" height="16"/>
</clipPath>
<g id="surface8" clip-path="url(#clip2)">
<path style=" stroke:none;fill-rule:nonzero;fill:rgb(100%,100%,100%);fill-opacity:1;" d="M 6.144531 8.058594 C 6.082031 8.003906 6.015625 7.953125 5.9375 7.941406 C 5.851562 7.933594 5.777344 7.96875 5.726562 8.0625 C 5.671875 8.152344 5.667969 8.265625 5.691406 8.363281 C 5.8125 8.878906 6.59375 9.28125 7.058594 8.933594 C 6.679688 9.007812 6.707031 8.554688 6.144531 8.058594 Z M 6.144531 8.058594 "/>
</g>
</defs>
<g id="surface1">
<path style=" stroke:none;fill-rule:nonzero;fill:rgb(90.980392%,5.882353%,5.882353%);fill-opacity:1;" d="M 15 6.945312 C 14.058594 8.1875 11.265625 9.441406 9.429688 8.785156 C 9.136719 8.679688 8.847656 8.523438 8.539062 8.523438 C 8.402344 8.523438 8.269531 8.554688 8.136719 8.519531 C 7.871094 8.449219 7.742188 8.160156 7.585938 7.933594 C 7.238281 7.433594 6.464844 7.050781 5.757812 6.730469 C 4.835938 6.3125 4.523438 6.398438 4.058594 6.929688 C 3.863281 7.160156 3.671875 7.390625 3.488281 7.625 C 3.320312 7.84375 3.269531 7.8125 3.183594 8.078125 C 3.101562 8.332031 3.097656 8.703125 3.199219 8.957031 C 3.304688 9.210938 3.523438 9.417969 3.726562 9.558594 C 4.082031 9.808594 4.332031 10.1875 4.691406 10.433594 C 5.324219 10.863281 6.160156 10.796875 6.898438 11 C 7.246094 11.097656 7.566406 11.253906 7.910156 11.355469 C 8.992188 11.671875 10.179688 11.425781 11.171875 10.894531 C 12.78125 10.027344 14.777344 7.761719 15 6.945312 Z M 15 6.945312 "/>
<path style=" stroke:none;fill-rule:nonzero;fill:rgb(84.705882%,1.960784%,1.960784%);fill-opacity:1;" d="M 4.699219 10.480469 C 4.339844 10.238281 4.089844 9.855469 3.734375 9.605469 C 3.5625 9.484375 3.378906 9.320312 3.261719 9.117188 C 3.257812 9.121094 3.253906 9.125 3.253906 9.128906 C 3.058594 8.800781 3.089844 8.347656 3.175781 8.101562 C 3.242188 7.914062 3.914062 7.125 4.042969 6.972656 C 4.324219 6.652344 4.574219 6.40625 5.152344 6.546875 C 4.984375 6.609375 4.824219 6.699219 4.6875 6.8125 C 4.503906 6.960938 4.335938 7.191406 4.410156 7.414062 C 4.433594 7.492188 4.488281 7.558594 4.539062 7.621094 C 4.675781 7.796875 4.929688 7.820312 4.953125 8.148438 C 4.683594 7.957031 4.257812 7.9375 3.972656 8.113281 C 3.796875 8.21875 3.773438 8.464844 3.910156 8.609375 C 4.003906 8.710938 4.109375 8.796875 4.210938 8.867188 C 4.566406 9.117188 4.816406 9.496094 5.175781 9.742188 C 5.808594 10.171875 6.644531 10.105469 7.382812 10.308594 C 8.015625 10.488281 9.441406 11.394531 11.65625 10.203125 C 12.964844 9.496094 14.347656 7.980469 14.914062 7.246094 C 14.671875 7.789062 11.382812 12.425781 7.921875 11.398438 C 7.578125 11.296875 7.25 11.140625 6.910156 11.046875 C 6.167969 10.84375 5.328125 10.910156 4.699219 10.480469 Z M 4.699219 10.480469 "/>
<use xlink:href="#surface5" mask="url(#mask0)"/>
<use xlink:href="#surface8" mask="url(#mask1)"/>
<path style=" stroke:none;fill-rule:nonzero;fill:rgb(72.941176%,0%,0%);fill-opacity:1;" d="M 4.675781 10.46875 C 4.316406 10.226562 4.066406 9.847656 3.710938 9.597656 C 3.507812 9.457031 3.289062 9.25 3.183594 8.996094 C 3.082031 8.746094 3.085938 8.371094 3.167969 8.113281 C 3.253906 7.851562 3.292969 7.890625 3.492188 7.636719 C 3.460938 7.683594 3.433594 7.742188 3.402344 7.839844 C 3.320312 8.097656 3.316406 8.46875 3.417969 8.71875 C 3.523438 8.976562 3.742188 9.179688 3.945312 9.320312 C 4.300781 9.570312 4.550781 9.949219 4.910156 10.195312 C 5.542969 10.628906 6.378906 10.558594 7.117188 10.765625 C 8.21875 11.070312 10.371094 12.59375 14.25 8.183594 C 13.460938 9.140625 12.300781 10.316406 11.160156 10.929688 C 10.167969 11.464844 8.976562 11.710938 7.898438 11.390625 C 7.554688 11.289062 7.230469 11.132812 6.886719 11.039062 C 6.148438 10.839844 5.308594 10.902344 4.675781 10.46875 Z M 4.675781 10.46875 "/>
<path style=" stroke:none;fill-rule:nonzero;fill:rgb(72.941176%,0%,0%);fill-opacity:1;" d="M 3.546875 7.570312 C 3.769531 7.289062 3.976562 7.042969 4.097656 6.910156 C 3.964844 7.070312 3.832031 7.230469 3.707031 7.390625 C 3.636719 7.480469 3.585938 7.53125 3.546875 7.570312 Z M 3.546875 7.570312 "/>
<path style=" stroke:none;fill-rule:nonzero;fill:rgb(84.705882%,1.960784%,1.960784%);fill-opacity:1;" d="M 8.4375 8.757812 C 8.304688 8.757812 8.167969 8.789062 8.039062 8.753906 C 7.773438 8.679688 7.644531 8.390625 7.488281 8.167969 C 7.242188 7.8125 6.863281 7.578125 6.488281 7.371094 C 6.214844 7.226562 5.9375 7.089844 5.65625 6.964844 C 5.316406 6.808594 4.898438 6.628906 4.527344 6.734375 C 4.445312 6.714844 4.363281 6.699219 4.28125 6.695312 C 4.710938 6.347656 5.203125 6.539062 5.707031 6.769531 C 6.410156 7.085938 7.1875 7.46875 7.539062 7.972656 C 7.695312 8.195312 7.824219 8.488281 8.089844 8.558594 C 8.21875 8.59375 8.355469 8.5625 8.488281 8.5625 C 8.800781 8.5625 9.089844 8.71875 9.382812 8.824219 C 11.21875 9.484375 13.789062 8.214844 14.675781 7.320312 C 14.15625 7.9375 13.417969 8.355469 12.679688 8.683594 C 10.113281 9.828125 9.132812 8.757812 8.4375 8.757812 Z M 8.4375 8.757812 "/>
<path style=" stroke:none;fill-rule:nonzero;fill:rgb(29.803922%,68.627451%,31.372549%);fill-opacity:1;" d="M 3.035156 7.613281 C 3.085938 7.140625 2.804688 6.601562 2.625 6.300781 C 2.410156 6.03125 2.214844 5.742188 1.992188 5.476562 C 1.714844 5.140625 1.351562 5.019531 1.011719 4.765625 C 0.878906 4.664062 1.039062 4.460938 1.171875 4.5625 C 1.601562 4.890625 1.726562 4.71875 2.277344 5.425781 C 2.574219 5.804688 3.308594 6.90625 3.894531 6.507812 C 4.03125 6.414062 4.074219 6.664062 3.9375 6.757812 C 3.875 6.800781 3.8125 6.828125 3.757812 6.851562 C 3.613281 7.050781 3.003906 7.886719 3.035156 7.613281 Z M 3.035156 7.613281 "/>
<path style=" stroke:none;fill-rule:nonzero;fill:rgb(18.823529%,55.686275%,18.823529%);fill-opacity:1;" d="M 3.035156 7.613281 C 3.085938 7.140625 2.804688 6.601562 2.625 6.300781 C 2.410156 6.03125 2.214844 5.742188 1.992188 5.476562 C 1.714844 5.140625 1.351562 5.019531 1.011719 4.765625 C 0.898438 4.679688 1 4.523438 1.109375 4.539062 C 0.929688 4.785156 1.703125 4.925781 2.128906 5.4375 C 2.351562 5.707031 2.546875 5.996094 2.769531 6.269531 C 2.949219 6.566406 3.226562 7.101562 3.1875 7.570312 C 3.089844 7.667969 3.023438 7.707031 3.035156 7.613281 Z M 3.035156 7.613281 "/>
<path style=" stroke:none;fill-rule:nonzero;fill:rgb(29.803922%,68.627451%,31.372549%);fill-opacity:1;" d="M 5.390625 6.582031 C 4.851562 6.433594 4.058594 6.933594 4.1875 7.335938 C 4.289062 7.652344 4.605469 7.601562 4.628906 7.933594 C 4.414062 7.777344 4.066406 7.761719 3.832031 7.902344 C 3.703125 7.984375 3.617188 8.117188 3.542969 8.25 C 3.441406 8.433594 3.230469 8.71875 3.148438 8.910156 C 2.96875 8.554688 2.917969 8.105469 3 7.710938 C 3.09375 7.265625 3.378906 6.859375 3.753906 6.601562 C 3.859375 6.527344 4.070312 6.398438 4.191406 6.359375 C 4.25 6.339844 4.308594 6.324219 4.363281 6.3125 C 4.71875 6.238281 5.117188 6.332031 5.390625 6.570312 Z M 5.390625 6.582031 "/>
<path style=" stroke:none;fill-rule:nonzero;fill:rgb(24.313725%,60.784314%,24.313725%);fill-opacity:1;" d="M 4.007812 6.445312 C 3.375 7.300781 3.421875 7.679688 3.636719 8.09375 C 3.597656 8.152344 3.195312 8.796875 3.148438 8.910156 C 2.738281 8.089844 2.964844 7.023438 4.007812 6.445312 Z M 4.007812 6.445312 "/>
<path style=" stroke:none;fill-rule:nonzero;fill:rgb(18.823529%,55.686275%,18.823529%);fill-opacity:1;" d="M 3.261719 8.707031 C 3.214844 8.78125 3.175781 8.855469 3.148438 8.914062 C 2.773438 8.164062 2.953125 7.21875 3.679688 6.664062 C 3.085938 7.226562 2.972656 8.035156 3.261719 8.707031 Z M 3.261719 8.707031 "/>
<path style=" stroke:none;fill-rule:nonzero;fill:rgb(54.509804%,76.470588%,29.019608%);fill-opacity:1;" d="M 3.335938 6.996094 C 3.617188 6.632812 4.042969 6.402344 4.1875 6.355469 C 4.246094 6.335938 4.304688 6.320312 4.359375 6.308594 C 4.71875 6.234375 5.117188 6.34375 5.390625 6.582031 L 5.371094 6.574219 C 5.191406 6.523438 4.992188 6.558594 4.808594 6.617188 C 4.273438 6.386719 3.761719 6.601562 3.335938 6.996094 Z M 3.335938 6.996094 "/>
<path style=" stroke:none;fill-rule:nonzero;fill:rgb(12.156863%,42.745098%,12.156863%);fill-opacity:1;" d="M 3.664062 6.859375 C 3.40625 6.894531 3.140625 7.273438 3.390625 7.425781 L 3.40625 7.421875 C 3.441406 7.355469 3.464844 7.3125 3.480469 7.265625 C 3.5 7.226562 3.488281 7.175781 3.5 7.128906 C 3.511719 7.085938 3.535156 7.035156 3.5625 6.996094 C 3.585938 6.949219 3.625 6.910156 3.671875 6.875 Z M 3.664062 6.859375 "/>
<path style=" stroke:none;fill-rule:nonzero;fill:rgb(72.941176%,0%,0%);fill-opacity:1;" d="M 15.109375 6.859375 C 14.941406 7.6875 14.179688 8.324219 13.617188 8.902344 C 10.402344 12.222656 8.578125 11.089844 7.40625 10.898438 C 6.476562 10.753906 6.0625 11.074219 4.875 10.175781 C 4.410156 9.820312 3.957031 9.449219 3.496094 9.085938 C 3.398438 9.007812 3.511719 8.855469 3.609375 8.929688 C 4.476562 9.621094 5.371094 10.589844 6.539062 10.648438 C 7.054688 10.679688 7.535156 10.714844 8.042969 10.839844 C 8.945312 11.070312 10.515625 11.460938 12.726562 9.496094 C 13.183594 9.089844 13.601562 8.640625 14.019531 8.191406 C 14.390625 7.792969 14.804688 7.386719 14.917969 6.832031 C 14.945312 6.714844 15.136719 6.734375 15.109375 6.859375 Z M 15.109375 6.859375 "/>
<path style=" stroke:none;fill-rule:nonzero;fill:rgb(72.941176%,0%,0%);fill-opacity:1;" d="M 3.800781 8.667969 C 3.832031 8.804688 3.878906 8.929688 3.9375 9.054688 C 3.988281 9.144531 3.925781 9.265625 3.835938 9.304688 C 3.734375 9.347656 3.632812 9.296875 3.585938 9.203125 C 3.507812 9.050781 3.453125 8.886719 3.417969 8.71875 C 3.394531 8.613281 3.488281 8.515625 3.585938 8.503906 C 3.695312 8.488281 3.777344 8.566406 3.800781 8.667969 Z M 3.800781 8.667969 "/>
<path style=" stroke:none;fill-rule:nonzero;fill:rgb(72.941176%,0%,0%);fill-opacity:1;" d="M 4.59375 8.78125 C 4.726562 9.046875 4.925781 9.246094 5.179688 9.390625 C 5.394531 9.515625 5.160156 9.824219 4.949219 9.699219 C 4.636719 9.515625 4.398438 9.25 4.242188 8.929688 C 4.128906 8.707031 4.484375 8.558594 4.59375 8.78125 Z M 4.59375 8.78125 "/>
<path style=" stroke:none;fill-rule:nonzero;fill:rgb(100%,27.058824%,27.058824%);fill-opacity:1;" d="M 8.980469 9.300781 C 8.746094 9.160156 8.476562 9.105469 8.207031 9.140625 C 8.085938 9.160156 8.0625 8.964844 8.183594 8.949219 C 8.503906 8.910156 8.820312 8.976562 9.097656 9.140625 C 9.203125 9.210938 9.089844 9.363281 8.980469 9.300781 Z M 8.980469 9.300781 "/>
<path style=" stroke:none;fill-rule:nonzero;fill:rgb(5.490196%,32.941176%,5.490196%);fill-opacity:1;" d="M 1.777344 4.929688 C 2.214844 5.273438 2.5 5.71875 2.878906 6.167969 C 3 6.308594 3.132812 6.453125 3.308594 6.550781 C 3.726562 6.789062 4.058594 6.539062 4.429688 6.488281 C 4.597656 6.464844 4.777344 6.46875 4.953125 6.496094 C 5.132812 6.523438 5.308594 6.570312 5.492188 6.613281 L 5.496094 6.617188 C 5.335938 6.519531 5.171875 6.414062 4.984375 6.359375 C 4.804688 6.300781 4.605469 6.277344 4.40625 6.292969 C 4.308594 6.300781 4.207031 6.328125 4.117188 6.355469 C 4.027344 6.382812 3.941406 6.417969 3.859375 6.445312 C 3.082031 6.679688 2.785156 5.582031 1.785156 4.910156 Z M 1.777344 4.929688 "/>
<path style=" stroke:none;fill-rule:nonzero;fill:rgb(5.490196%,32.941176%,5.490196%);fill-opacity:1;" d="M 4.316406 7.824219 C 4.195312 7.742188 3.960938 7.722656 3.6875 7.917969 C 3.53125 8.023438 3.34375 8.203125 3.230469 8.398438 C 3.058594 8.691406 3.027344 9 2.785156 9.195312 C 2.707031 9.253906 2.613281 9.300781 2.503906 9.300781 C 2.699219 9.378906 2.945312 9.257812 3.09375 9.054688 C 3.328125 8.738281 3.28125 8.503906 3.777344 8.03125 C 3.851562 7.964844 3.933594 7.902344 4.023438 7.863281 C 4.109375 7.820312 4.207031 7.800781 4.316406 7.824219 Z M 4.316406 7.824219 "/>
<path style=" stroke:none;fill-rule:nonzero;fill:rgb(12.156863%,42.745098%,12.156863%);fill-opacity:1;" d="M 0.957031 4.695312 C 2.082031 5.535156 2.929688 6.703125 2.964844 7.207031 C 2.988281 7.457031 2.894531 7.765625 2.886719 8.101562 C 2.878906 8.308594 2.917969 8.523438 3.011719 8.703125 C 2.878906 8.257812 3.019531 7.886719 3.09375 7.515625 C 3.140625 7.261719 3.144531 7.105469 3.066406 6.875 C 2.992188 6.671875 2.882812 6.5 2.773438 6.324219 C 2.285156 5.5625 1.625 5.003906 0.957031 4.695312 Z M 0.957031 4.695312 "/>
<path style=" stroke:none;fill-rule:nonzero;fill:rgb(5.490196%,32.941176%,5.490196%);fill-opacity:1;" d="M 0.972656 4.457031 C 0.960938 4.644531 0.804688 4.597656 0.945312 4.757812 L 0.960938 4.769531 C 1 4.769531 1.046875 4.75 1.070312 4.71875 C 1.097656 4.6875 1.0625 4.558594 1.050781 4.527344 C 1.035156 4.5 1.019531 4.46875 0.988281 4.449219 Z M 0.972656 4.457031 "/>
</g>
</svg>
